<mxfile host="app.diagrams.net" modified="2023-11-16T04:37:24.236Z" agent="Mozilla/5.0 (Windows NT 10.0; Win64; x64) AppleWebKit/537.36 (KHTML, like Gecko) Chrome/119.0.0.0 Safari/537.36 Edg/119.0.0.0" version="22.1.2" etag="CThETR5WQnMGZ_oUk4oF" type="google">
  <diagram name="PÃ¡gina-1" id="uxlBD3VOgtBEECfNwBVa">
    <mxGraphModel>
      <root>
        <mxCell id="0" />
        <mxCell id="1" parent="0" />
      </root>
    </mxGraphModel>
  </diagram>
</mxfile>
